<svg id="Layer_1" enable-background="new 0 0 256 256" height="512" viewBox="0 0 256 256" width="512" xmlns="http://www.w3.org/2000/svg"><path d="m244 228.274h-232c-2.209 0-4-1.791-4-4v-22.5c0-2.209 1.791-4 4-4h232c2.209 0 4 1.791 4 4v22.5c0 2.209-1.791 4-4 4z" fill="#eaa97d"/><path d="m244 230.274h-232c-3.309 0-6-2.691-6-6v-22.5c0-3.309 2.691-6 6-6h232c3.309 0 6 2.691 6 6v22.5c0 3.309-2.691 6-6 6zm-232-30.5c-1.103 0-2 .897-2 2v22.5c0 1.103.897 2 2 2h232c1.103 0 2-.897 2-2v-22.5c0-1.103-.897-2-2-2z" fill="#3762cc"/><path d="m70.064 197.774h-42c-1.657 0-3-1.343-3-3v-161c0-1.657 1.343-3 3-3h42c1.657 0 3 1.343 3 3v161c0 1.657-1.343 3-3 3z" fill="#4671c6"/><path d="m35.064 184.774v-8.167c0-1.657 1.343-3 3-3h22c1.657 0 3 1.343 3 3v8.167c0 1.657-1.343 3-3 3h-22c-1.657 0-3-1.343-3-3z" fill="#e0ebfc"/><path d="m38.564 114.774v-69c0-2.761 2.239-5 5-5h11c2.761 0 5 2.239 5 5v69c0 2.761-2.239 5-5 5h-11c-2.762 0-5-2.238-5-5z" fill="#a4c9ff"/><path d="m118.064 197.774h-42c-1.657 0-3-1.343-3-3v-161c0-1.657 1.343-3 3-3h42c1.657 0 3 1.343 3 3v161c0 1.657-1.343 3-3 3z" fill="#6bdddd"/><path d="m83.064 184.774v-8.167c0-1.657 1.343-3 3-3h22c1.657 0 3 1.343 3 3v8.167c0 1.657-1.343 3-3 3h-22c-1.657 0-3-1.343-3-3z" fill="#4671c6"/><path d="m174.5 197.774h-50.436c-1.657 0-3-1.343-3-3v-161c0-1.657 1.343-3 3-3h50.436c1.657 0 3 1.343 3 3v161c0 1.657-1.343 3-3 3z" fill="#f9a7a7"/><path d="m136.064 184.774v-8.167c0-1.657 1.343-3 3-3h22c1.657 0 3 1.343 3 3v8.167c0 1.657-1.343 3-3 3h-22c-1.657 0-3-1.343-3-3z" fill="#6bdddd"/><path d="m139.564 155.607v-111.833c0-1.657 1.343-3 3-3h15c1.657 0 3 1.343 3 3v111.833c0 1.657-1.343 3-3 3h-15c-1.657 0-3-1.343-3-3z" fill="#f9cfcf"/><path d="m236.729 194.102-41.84 3.661c-1.651.144-3.106-1.077-3.25-2.727l-14.032-160.388c-.144-1.651 1.077-3.106 2.727-3.25l41.84-3.661c1.651-.144 3.106 1.077 3.25 2.727l14.032 160.387c.145 1.651-1.076 3.107-2.727 3.251z" fill="#b9befc"/><path d="m200.73 184.202-.712-8.136c-.144-1.651 1.077-3.106 2.727-3.25l21.916-1.917c1.651-.144 3.106 1.077 3.25 2.727l.712 8.136c.144 1.651-1.077 3.106-2.727 3.25l-21.916 1.917c-1.651.144-3.106-1.077-3.25-2.727z" fill="#f9a7a7"/><path d="m201.587 153.845-9.573-109.415c-.193-2.201 1.435-4.141 3.636-4.333l12.951-1.133c2.201-.193 4.141 1.435 4.333 3.636l9.573 109.415c.193 2.201-1.435 4.141-3.636 4.333l-12.951 1.133c-2.2.193-4.14-1.435-4.333-3.636z" fill="#e0ebfc"/><path d="m38.564 153.607v-18.333c0-2.761 2.239-5 5-5h11c2.761 0 5 2.239 5 5v18.333c0 2.761-2.239 5-5 5h-11c-2.762 0-5-2.238-5-5z" fill="#a4c9ff"/><path d="m85.423 156.607v-113.833c0-1.105.895-2 2-2h4.436c1.105 0 2 .895 2 2v113.833c0 1.105-.895 2-2 2h-4.436c-1.105 0-2-.895-2-2z" fill="#e0ebfc"/><path d="m100.641 156.607v-66c0-1.105.895-2 2-2h4.064c1.105 0 2 .895 2 2v66c0 1.105-.895 2-2 2h-4.064c-1.105 0-2-.895-2-2z" fill="#e0ebfc"/><g fill="#3762cc"><path d="m70.063 199.774h-42c-2.757 0-5-2.243-5-5v-161c0-2.757 2.243-5 5-5h42c2.757 0 5 2.243 5 5v161c0 2.757-2.243 5-5 5zm-42-167c-.551 0-1 .448-1 1v161c0 .552.449 1 1 1h42c.551 0 1-.448 1-1v-161c0-.552-.449-1-1-1z"/><path d="m118.063 199.774h-42c-2.757 0-5-2.243-5-5v-161c0-2.757 2.243-5 5-5h42c2.757 0 5 2.243 5 5v161c0 2.757-2.243 5-5 5zm-42-167c-.551 0-1 .448-1 1v161c0 .552.449 1 1 1h42c.551 0 1-.448 1-1v-161c0-.552-.449-1-1-1z"/><path d="m174.5 199.774h-50.437c-2.757 0-5-2.243-5-5v-161c0-2.757 2.243-5 5-5h50.437c2.757 0 5 2.243 5 5v161c0 2.757-2.243 5-5 5zm-50.437-167c-.551 0-1 .448-1 1v161c0 .552.449 1 1 1h50.437c.551 0 1-.448 1-1v-161c0-.552-.449-1-1-1z"/><path d="m194.619 199.774c-1.172 0-2.296-.407-3.206-1.171-1.023-.858-1.65-2.063-1.767-3.394l-14.031-160.386c-.116-1.332.292-2.628 1.151-3.65.858-1.023 2.064-1.651 3.395-1.767l41.839-3.661c1.328-.12 2.626.292 3.65 1.151 1.023.858 1.65 2.063 1.767 3.394l14.032 160.387c.117 1.331-.292 2.628-1.15 3.65-.859 1.023-2.064 1.65-3.395 1.767l-41.84 3.661c-.149.014-.297.019-.445.019zm27.82-170.048c-.029 0-.059.001-.09.004l-41.84 3.661c-.359.031-.58.234-.679.353-.1.119-.262.372-.23.731l14.032 160.387c.032.358.235.579.354.679s.369.271.729.23l41.84-3.661h.001c.358-.031.579-.234.678-.353.1-.119.262-.371.23-.73l-14.032-160.388c-.032-.358-.235-.579-.354-.679-.108-.091-.328-.234-.639-.234z"/></g></svg>